<svg width="958" height="180" viewBox="0 0 958 180" fill="none" xmlns="http://www.w3.org/2000/svg">
<rect width="958" height="180" rx="14" fill="#F6F6F9"/>
<path d="M57.488 58.908C57.488 56.004 60.032 54.444 62.648 54.444C64.976 54.444 67.616 55.836 68.144 59.052L66.08 59.556C65.768 57.06 64.088 56.412 62.48 56.412C60.752 56.412 59.648 57.324 59.648 58.74C59.648 60.156 60.464 60.852 61.784 61.26L64.928 62.172C66.848 62.724 68.408 63.756 68.408 66.276C68.408 69.18 65.816 70.812 62.984 70.812C60.056 70.812 57.152 69.012 56.696 65.676L58.808 65.148C59.096 68.172 61.304 68.844 63.008 68.844C65.264 68.844 66.272 67.86 66.272 66.444C66.272 65.1 65.36 64.452 63.992 64.068L61.064 63.204C59.096 62.652 57.488 61.572 57.488 58.908ZM81.2896 70.5H79.2976V68.436C78.3376 70.116 76.6576 70.812 75.0736 70.812C72.9856 70.812 71.0896 69.66 71.0896 66.876V58.404H73.0816V66.3C73.0816 68.22 73.8976 68.964 75.7936 68.964C77.7136 68.964 79.2976 67.932 79.2976 65.508V58.404H81.2896V70.5ZM91.2526 58.068C93.7486 58.068 96.6526 60.036 96.6526 64.26C96.6526 68.676 93.8686 70.812 91.0126 70.812C89.3806 70.812 87.9166 69.828 86.9806 68.148V74.7H84.9886V58.404H86.9806V60.756C87.6766 59.508 89.0446 58.068 91.2526 58.068ZM90.7966 59.844C88.7806 59.844 86.9806 61.284 86.9806 64.404C86.9806 67.404 88.7806 69.036 90.7726 69.036C92.6686 69.036 94.6366 67.524 94.6366 64.308C94.6366 61.308 92.6446 59.844 90.7966 59.844ZM105.667 58.068C108.163 58.068 111.067 60.036 111.067 64.26C111.067 68.676 108.283 70.812 105.427 70.812C103.795 70.812 102.331 69.828 101.395 68.148V74.7H99.4027V58.404H101.395V60.756C102.091 59.508 103.459 58.068 105.667 58.068ZM105.211 59.844C103.195 59.844 101.395 61.284 101.395 64.404C101.395 67.404 103.195 69.036 105.187 69.036C107.083 69.036 109.051 67.524 109.051 64.308C109.051 61.308 107.059 59.844 105.211 59.844ZM118.689 58.068C121.857 58.068 124.473 60.468 124.473 64.428C124.473 68.388 121.857 70.812 118.689 70.812C115.497 70.812 112.905 68.388 112.905 64.428C112.905 60.468 115.497 58.068 118.689 58.068ZM118.689 59.844C116.649 59.844 114.921 61.356 114.921 64.428C114.921 67.524 116.649 69.036 118.689 69.036C120.729 69.036 122.457 67.524 122.457 64.428C122.457 61.356 120.729 59.844 118.689 59.844ZM132.622 60.228C130.894 60.228 129.238 61.404 129.238 65.172V70.5H127.246V58.404H129.238V61.14C130.174 58.692 132.094 58.068 133.198 58.068C133.63 58.068 134.014 58.14 134.302 58.26L134.062 60.444C133.678 60.324 133.27 60.228 132.622 60.228ZM137.412 55.452L139.404 55.068V58.404H142.572V60.084H139.404V67.62C139.404 68.508 139.836 68.964 140.892 68.964C141.468 68.964 141.756 68.892 142.164 68.796L142.548 70.476C141.996 70.644 141.228 70.812 140.628 70.812C138.444 70.812 137.412 69.588 137.412 67.692V60.084H135.036V58.404H137.412V55.452ZM156.18 70.812C153.636 70.812 150.78 68.772 150.78 64.428C150.78 60.132 153.612 58.068 156.108 58.068C158.148 58.068 159.492 58.908 160.332 60.924V58.404H162.324V70.5H160.332V67.788C159.756 69.348 158.436 70.812 156.18 70.812ZM156.516 59.844C154.692 59.844 152.796 61.284 152.796 64.476C152.796 67.644 154.692 69.036 156.516 69.036C158.556 69.036 160.332 67.716 160.332 64.476C160.332 61.332 158.532 59.844 156.516 59.844ZM171.388 59.916C169.42 59.916 168.004 61.044 168.004 63.516V70.5H166.012V58.404H168.004V60.276C168.82 58.716 170.572 58.068 171.988 58.068C174.148 58.068 176.116 59.148 176.116 62.388V70.5H174.124V62.964C174.124 60.732 172.924 59.916 171.388 59.916ZM190.426 54.228V70.5H188.434V68.244C187.81 69.612 186.586 70.812 184.234 70.812C181.738 70.812 178.858 68.748 178.858 64.332C178.858 60.108 181.69 58.068 184.57 58.068C186.274 58.068 187.618 58.956 188.434 60.66V54.228H190.426ZM184.69 59.844C182.842 59.844 180.874 61.308 180.874 64.38C180.874 67.524 182.818 69.036 184.666 69.036C186.682 69.036 188.434 67.644 188.434 64.476C188.434 61.428 186.682 59.844 184.69 59.844ZM211.238 54.228V70.5H209.246V68.244C208.622 69.612 207.398 70.812 205.046 70.812C202.55 70.812 199.67 68.748 199.67 64.332C199.67 60.108 202.502 58.068 205.382 58.068C207.086 58.068 208.43 58.956 209.246 60.66V54.228H211.238ZM205.502 59.844C203.654 59.844 201.686 61.308 201.686 64.38C201.686 67.524 203.63 69.036 205.478 69.036C207.494 69.036 209.246 67.644 209.246 64.476C209.246 61.428 207.494 59.844 205.502 59.844ZM219.894 59.844C217.878 59.844 216.486 60.948 216.126 63.156H223.59C223.446 60.852 221.91 59.844 219.894 59.844ZM225.51 64.764H216.03C216.15 67.284 217.494 69.036 220.11 69.036C222.318 69.036 223.206 68.004 223.566 66.42L225.39 66.828C224.934 69.588 222.318 70.812 220.134 70.812C216.726 70.812 214.014 68.388 214.014 64.404C214.014 60.516 216.63 58.068 219.942 58.068C223.23 58.068 225.51 60.396 225.51 64.044V64.764ZM226.774 58.404H229.03L232.51 68.052L236.014 58.404H238.246L233.422 70.5H231.598L226.774 58.404ZM245.371 59.844C243.355 59.844 241.963 60.948 241.603 63.156H249.067C248.923 60.852 247.387 59.844 245.371 59.844ZM250.987 64.764H241.507C241.627 67.284 242.971 69.036 245.587 69.036C247.795 69.036 248.683 68.004 249.043 66.42L250.867 66.828C250.411 69.588 247.795 70.812 245.611 70.812C242.203 70.812 239.491 68.388 239.491 64.404C239.491 60.516 242.107 58.068 245.419 58.068C248.707 58.068 250.987 60.396 250.987 64.044V64.764ZM253.762 54.228H255.754V70.5H253.762V54.228ZM264.329 58.068C267.497 58.068 270.113 60.468 270.113 64.428C270.113 68.388 267.497 70.812 264.329 70.812C261.137 70.812 258.545 68.388 258.545 64.428C258.545 60.468 261.137 58.068 264.329 58.068ZM264.329 59.844C262.289 59.844 260.561 61.356 260.561 64.428C260.561 67.524 262.289 69.036 264.329 69.036C266.369 69.036 268.097 67.524 268.097 64.428C268.097 61.356 266.369 59.844 264.329 59.844ZM279.151 58.068C281.647 58.068 284.551 60.036 284.551 64.26C284.551 68.676 281.767 70.812 278.911 70.812C277.279 70.812 275.815 69.828 274.879 68.148V74.7H272.887V58.404H274.879V60.756C275.575 59.508 276.943 58.068 279.151 58.068ZM278.695 59.844C276.679 59.844 274.879 61.284 274.879 64.404C274.879 67.404 276.679 69.036 278.671 69.036C280.567 69.036 282.535 67.524 282.535 64.308C282.535 61.308 280.543 59.844 278.695 59.844ZM299.877 59.916C298.221 59.916 296.997 61.044 296.997 63.516V70.5H294.981V63.036C294.981 60.804 293.805 59.916 292.269 59.916C290.565 59.916 289.293 61.044 289.293 63.516V70.5H287.301V58.404H289.293V60.252C290.085 58.692 291.669 58.068 293.061 58.068C294.525 58.068 296.013 58.668 296.661 60.42C297.525 58.62 299.229 58.068 300.549 58.068C302.661 58.068 304.677 59.148 304.677 62.388V70.5H302.685V62.916C302.685 60.804 301.509 59.916 299.877 59.916ZM313.293 59.844C311.277 59.844 309.885 60.948 309.525 63.156H316.989C316.845 60.852 315.309 59.844 313.293 59.844ZM318.909 64.764H309.429C309.549 67.284 310.893 69.036 313.509 69.036C315.717 69.036 316.605 68.004 316.965 66.42L318.789 66.828C318.333 69.588 315.717 70.812 313.533 70.812C310.125 70.812 307.413 68.388 307.413 64.404C307.413 60.516 310.029 58.068 313.341 58.068C316.629 58.068 318.909 60.396 318.909 64.044V64.764ZM327.06 59.916C325.092 59.916 323.676 61.044 323.676 63.516V70.5H321.684V58.404H323.676V60.276C324.492 58.716 326.244 58.068 327.66 58.068C329.82 58.068 331.788 59.148 331.788 62.388V70.5H329.796V62.964C329.796 60.732 328.596 59.916 327.06 59.916ZM336.162 55.452L338.154 55.068V58.404H341.322V60.084H338.154V67.62C338.154 68.508 338.586 68.964 339.642 68.964C340.218 68.964 340.506 68.892 340.914 68.796L341.298 70.476C340.746 70.644 339.978 70.812 339.378 70.812C337.194 70.812 336.162 69.588 336.162 67.692V60.084H333.786V58.404H336.162V55.452ZM350.442 54.228H352.434V60.708C353.082 59.556 354.402 58.068 356.61 58.068C359.106 58.068 362.01 60.036 362.01 64.26C362.01 68.676 359.25 70.812 356.37 70.812C354.666 70.812 353.25 69.804 352.434 68.316V70.5H350.442V54.228ZM356.226 59.844C354.234 59.844 352.434 61.284 352.434 64.404C352.434 67.404 354.234 69.036 356.202 69.036C358.074 69.036 359.994 67.524 359.994 64.308C359.994 61.308 358.05 59.844 356.226 59.844ZM365.674 74.628C364.906 74.628 364.162 74.412 363.706 74.196L364.042 72.492C364.378 72.66 364.978 72.9 365.818 72.9C367.642 72.9 368.362 71.316 367.642 69.516L363.202 58.404H365.458L369.058 68.58L372.442 58.404H374.674L369.778 71.436C368.962 73.62 367.738 74.628 365.674 74.628Z" fill="black"/>
<g clip-path="url(#clip0_107_7952)">
<path d="M67.5827 96.9964C57.5444 106.498 56.9568 107.085 56.4365 108.159C56.0671 108.932 56 109.318 56 110.51C56 111.718 56.0671 112.088 56.4532 112.91C56.9065 113.867 58.283 115.462 59.4748 116.418L60.1127 116.905L67.3645 110.107C71.3597 106.363 75.0192 102.788 75.506 102.183C76.6978 100.622 77.0839 99.5647 77.1847 97.4832C77.2518 96.1906 77.2014 95.5695 76.9832 94.7974C76.6139 93.5384 75.8921 92.1619 75.0863 91.2218L74.4652 90.5L67.5827 96.9964Z" fill="black"/>
<path d="M83.0939 91.4065C80.9452 94.1091 80.5591 97.3825 82.0028 100.505C82.7078 102.032 83.0435 102.402 88.432 107.522L92.6622 111.534L87.8277 116.133C82.9764 120.749 82.221 121.622 81.5663 123.301C80.8445 125.181 81.0123 128.152 81.9692 130.049C82.4056 130.922 83.5807 132.5 83.7821 132.5C83.9668 132.5 99.6454 117.745 100.955 116.335C102.147 115.059 102.785 113.615 102.885 112.02C103.003 109.888 102.382 108.243 100.787 106.531C100.149 105.843 85.998 92.4808 84.2522 90.9029L83.8157 90.5L83.0939 91.4065Z" fill="black"/>
<path d="M131.204 95.519C129.844 95.6365 127.981 96.1233 127.024 96.6101C124.439 97.9195 122.743 100.74 122.727 103.728C122.727 104.768 122.676 104.802 120.88 104.802C119.034 104.802 118.799 105.003 118.731 106.783C118.664 108.059 118.698 108.159 119.101 108.562C119.47 108.948 119.671 108.999 120.662 108.999C121.283 108.999 121.971 109.049 122.189 109.099L122.559 109.2V116.788C122.576 120.951 122.643 124.694 122.71 125.114C122.811 125.584 123.029 126.003 123.314 126.238C123.717 126.591 123.902 126.625 125.899 126.625C127.981 126.625 128.048 126.608 128.451 126.188L128.854 125.752L128.938 117.509C128.988 112.96 129.055 109.234 129.072 109.2C129.089 109.183 130.314 109.166 131.791 109.166C134.595 109.166 135.317 109.015 135.552 108.411C135.736 107.907 135.652 105.742 135.417 105.44C135.031 104.919 134.326 104.802 131.808 104.802C130.113 104.802 129.273 104.735 129.139 104.601C128.887 104.349 128.887 103.425 129.122 102.536C129.357 101.68 130.482 100.589 131.405 100.303C132.329 100.035 133.755 100.018 134.763 100.27C136.105 100.622 136.424 100.454 137.096 99.0106C137.767 97.6173 137.784 97.013 137.163 96.543C136.357 95.9554 132.916 95.3511 131.204 95.519Z" fill="black"/>
<path d="M229.775 96.4926C227.844 96.8787 227.475 97.0634 227.206 97.6845C227.005 98.1545 226.971 100.505 226.971 111.55C226.971 120.027 227.038 125.08 227.139 125.466C227.424 126.507 227.861 126.658 230.245 126.591C233.115 126.524 232.981 126.692 233.048 122.999L233.098 120.078L234.189 118.987L235.281 117.895L238.52 121.991C240.837 124.895 241.928 126.154 242.348 126.339C242.801 126.557 243.439 126.625 245.336 126.625C247.417 126.625 247.803 126.591 248.122 126.322C248.408 126.087 248.475 125.903 248.408 125.601C248.34 125.382 246.393 122.898 244.043 120.078L239.779 114.958L243.825 110.795C246.058 108.512 247.938 106.497 248.022 106.313C248.122 106.095 248.089 105.86 247.887 105.557C247.619 105.138 247.568 105.138 245.47 105.138C244.295 105.138 243.036 105.222 242.667 105.322C241.928 105.524 240.602 106.783 235.734 111.97L233.182 114.689V106.162C233.182 97.3655 233.132 96.7444 232.511 96.4087C232.091 96.1905 231.185 96.224 229.775 96.4926Z" fill="black"/>
<path d="M211.444 97.4328C209.178 97.9028 209.178 97.9028 209.178 101.512C209.178 103.644 209.127 104.466 208.976 104.584C208.859 104.685 208.087 104.802 207.247 104.852C205.334 104.97 205.149 105.138 205.149 106.917C205.149 107.975 205.199 108.21 205.552 108.613C205.938 109.049 206.055 109.083 207.449 109.15C208.305 109.183 208.976 109.284 209.043 109.402C209.111 109.502 209.178 112.037 209.178 115.042C209.178 118.047 209.262 120.984 209.362 121.589C209.732 123.939 211.242 125.718 213.626 126.658C216.765 127.884 221.314 127.263 222.892 125.382C223.396 124.778 223.362 124.459 222.573 122.831C222.238 122.159 221.835 121.589 221.583 121.438C221.197 121.219 221.029 121.253 219.753 121.757C218.159 122.361 217.47 122.361 216.497 121.773C215.338 121.051 215.305 120.833 215.305 114.622V109.083L218.293 108.999C221.197 108.915 221.298 108.898 221.617 108.512C221.868 108.21 221.935 107.857 221.935 106.867C221.935 106.179 221.868 105.474 221.768 105.306C221.482 104.785 220.643 104.634 217.89 104.634H215.238L215.187 101.176C215.137 97.7853 215.137 97.7182 214.734 97.3992C214.247 96.9963 213.458 97.0131 211.444 97.4328Z" fill="black"/>
<path d="M147.252 105.071C146.127 105.373 145.439 105.776 144.096 106.951L143.038 107.857V106.984C143.038 105.49 142.233 105.037 139.765 105.171C138.741 105.222 138.439 105.289 138.137 105.608L137.75 105.994V115.797V125.617L138.204 126.071C138.64 126.507 138.774 126.541 140.453 126.591C142.602 126.675 143.424 126.49 143.676 125.819C143.794 125.533 143.894 123.099 143.928 119.322C143.995 112.541 144.012 112.473 145.17 111.164C146.396 109.804 148.209 109.368 150.609 109.872C152.036 110.157 152.338 109.955 152.842 108.344C153.446 106.413 153.463 105.759 152.909 105.457C151.75 104.836 148.846 104.634 147.252 105.071Z" fill="black"/>
<path d="M162.847 104.903C161.201 105.222 159.556 105.759 158.482 106.33C155.88 107.74 153.882 110.073 152.993 112.742C152.607 113.951 152.54 114.387 152.54 116.217C152.54 118.063 152.59 118.466 152.976 119.541C154.537 123.905 158.465 126.776 163.703 127.38C164.911 127.531 167.832 127.095 169.595 126.524C175.034 124.744 178.206 118.836 176.729 113.262C175.89 110.056 174.06 107.824 171.038 106.346C170.082 105.876 168.823 105.373 168.218 105.222C167.161 104.953 163.686 104.752 162.847 104.903ZM167.463 110.325C169.007 111.047 170.317 112.474 170.77 113.934C171.978 117.912 169.796 121.572 165.767 122.277C163.149 122.73 160.177 121.27 159.036 118.92C158.6 118.047 158.566 117.828 158.566 115.965C158.566 114.051 158.583 113.9 159.053 113.061C160.681 110.14 164.458 108.915 167.463 110.325Z" fill="black"/>
<path d="M190.763 105.121C189.235 105.541 188.732 105.809 187.271 106.951L186.096 107.857L186.012 106.9C185.945 106.111 185.844 105.876 185.441 105.524C184.971 105.138 184.854 105.104 183.309 105.171C181.849 105.222 181.614 105.272 181.278 105.608L180.892 105.994V115.78C180.892 126.641 180.859 126.306 181.983 126.641C182.319 126.742 183.326 126.792 184.199 126.776C185.525 126.725 185.911 126.641 186.297 126.356L186.767 126.003L186.851 119.557C186.952 112.406 186.935 112.507 188.11 111.214C189.084 110.123 190.007 109.754 191.803 109.754C193.163 109.754 193.398 109.804 194.221 110.258C195.228 110.812 195.933 111.584 196.252 112.49C196.42 112.943 196.504 114.874 196.571 119.541L196.672 125.987L197.074 126.306C197.41 126.574 197.746 126.625 199.374 126.625C200.432 126.625 201.456 126.541 201.691 126.44C202.463 126.087 202.497 125.768 202.429 118.802C202.362 113.279 202.312 112.121 202.077 111.298C201.154 108.143 199.055 106.027 196 105.188C194.506 104.785 192.139 104.752 190.763 105.121Z" fill="black"/>
<path d="M259.033 105.054C253.829 106.111 250.405 109.67 249.633 114.79C248.928 119.389 251.513 124.023 255.911 126.037C258.395 127.195 261.383 127.632 263.901 127.229C266.805 126.759 268.534 126.037 270.398 124.509C272.664 122.646 274.309 119.037 274.309 115.898C274.309 114.538 273.755 112.524 272.949 110.879C271.489 107.891 268.618 105.876 264.707 105.071C263.163 104.752 260.561 104.752 259.033 105.054ZM264.153 110.123C265.781 110.694 266.906 111.668 267.662 113.162C268.199 114.219 268.333 114.891 268.283 116.351C268.232 118.164 267.762 119.272 266.52 120.497C263.062 123.939 257.069 122.495 255.726 117.912C255.34 116.569 255.508 114.521 256.112 113.279C257.489 110.476 261.098 109.049 264.153 110.123Z" fill="black"/>
<path d="M288.427 105.054C286.983 105.373 285.489 106.111 284.348 107.051L283.374 107.84V107.27C283.374 106.38 283.055 105.658 282.518 105.39C282.216 105.222 281.528 105.138 280.52 105.138C279.144 105.138 278.959 105.171 278.59 105.541C278.321 105.809 278.17 106.212 278.086 106.833C278.036 107.337 278.002 111.802 278.036 116.754L278.086 125.769L278.472 126.155C278.825 126.507 279.026 126.541 280.923 126.591C282.283 126.625 283.139 126.591 283.374 126.457C284.163 126.037 284.213 125.55 284.213 119.037C284.213 113.246 284.23 112.927 284.566 112.255C285.288 110.761 286.832 109.855 288.897 109.721C289.988 109.637 290.307 109.687 291.062 110.006C291.532 110.207 292.187 110.677 292.506 111.03C293.547 112.171 293.614 112.692 293.614 119.507V125.601L294.017 126.071C294.42 126.524 294.47 126.541 296.484 126.591C298.583 126.658 299.153 126.541 299.439 125.97C299.506 125.819 299.607 122.797 299.657 119.239C299.758 112.054 299.707 112.322 300.95 111.08C301.906 110.123 302.847 109.771 304.525 109.771C305.616 109.754 306.103 109.838 306.607 110.073C307.547 110.543 308.336 111.433 308.722 112.474C309.041 113.313 309.058 113.766 309.058 119.306C309.058 123.016 309.125 125.416 309.225 125.735C309.326 126.02 309.595 126.322 309.83 126.44C310.417 126.709 314.11 126.692 314.48 126.406C314.748 126.222 314.765 125.617 314.731 118.315L314.681 110.426L314.194 109.452C312.818 106.632 309.46 104.802 305.717 104.802C303.048 104.802 300.882 105.591 299.002 107.219L297.928 108.143L297.089 107.387C296.619 106.968 295.914 106.43 295.511 106.195C293.547 105.054 290.559 104.567 288.427 105.054Z" fill="black"/>
<path d="M71.6954 110.124C64.7961 116.637 64.3093 117.207 63.9904 119.205C63.6882 121.135 64.3093 122.848 65.9208 124.56C67.247 125.953 74.2134 132.5 74.3813 132.5C74.6163 132.5 75.7074 131.191 76.0767 130.469C77.94 126.809 77.3861 123.1 74.5156 120.128L73.3069 118.886L74.9017 117.342C76.5971 115.697 77.1175 114.874 77.4028 113.313C77.5875 112.356 77.3861 110.778 76.9496 109.922C76.5971 109.217 75.6403 108.076 75.0863 107.689L74.6331 107.354L71.6954 110.124Z" fill="black"/>
</g>
<g clip-path="url(#clip1_107_7952)">
<path d="M941.212 74.2161L941.223 74.2119L941.235 74.2069C942.051 73.8553 942.624 73.9234 942.979 74.1689C943.34 74.4183 943.602 74.9368 943.602 75.7565V108.832C943.602 109.475 943.457 109.999 943.177 110.414C942.899 110.827 942.465 111.163 941.831 111.395C930.096 115.666 921.157 117.789 912.234 117.789C903.311 117.789 894.371 115.666 882.637 111.396C882.002 111.163 881.569 110.827 881.29 110.414C881.011 109.999 880.866 109.475 880.866 108.832V75.7565C880.866 74.9368 881.127 74.4183 881.488 74.1689C881.843 73.9234 882.416 73.8553 883.232 74.2069L883.244 74.2119L883.256 74.2161C894.522 78.2464 903.37 80.2734 912.234 80.2734C921.097 80.2734 929.945 78.2464 941.212 74.2161Z" stroke="#FF5B24" stroke-width="0.818061"/>
<path d="M883.255 72.9143L883.243 72.9184L883.232 72.9234C882.416 73.2764 881.843 73.2081 881.489 72.9619C881.127 72.7111 880.866 72.1894 880.866 71.3651V38.1414C880.866 37.4957 881.011 36.9687 881.291 36.5515C881.569 36.136 882.003 35.7979 882.638 35.5651C894.372 31.275 903.311 29.1436 912.234 29.1436C921.156 29.1436 930.096 31.275 941.83 35.5651C942.464 35.7979 942.898 36.136 943.177 36.5515C943.457 36.9687 943.602 37.4957 943.602 38.1414V71.3651C943.602 72.1894 943.34 72.7111 942.979 72.9619C942.624 73.2081 942.051 73.2764 941.236 72.9234L941.224 72.9184L941.212 72.9143C929.946 68.8659 921.098 66.8296 912.234 66.8296C903.37 66.8296 894.522 68.8659 883.255 72.9143Z" stroke="#FF5B24" stroke-width="0.818061"/>
<path d="M858.529 122.298L858.525 122.286L858.52 122.274C858.285 121.723 858.342 121.366 858.482 121.161C858.626 120.952 858.941 120.777 859.488 120.777H882.518C882.946 120.777 883.286 120.874 883.55 121.054C883.813 121.233 884.034 121.515 884.188 121.942C887.16 130.177 888.633 136.442 888.633 142.689C888.633 148.937 887.16 155.201 884.188 163.437C884.034 163.864 883.813 164.146 883.55 164.325C883.286 164.504 882.946 164.602 882.518 164.602H859.488C858.941 164.602 858.626 164.426 858.482 164.217C858.342 164.013 858.285 163.656 858.52 163.104L858.525 163.092L858.529 163.081C861.338 155.162 862.754 148.933 862.754 142.689C862.754 136.445 861.338 130.217 858.529 122.298Z" stroke="#FF5B24" stroke-width="0.818061"/>
<path d="M756.191 165H789.26C790.664 165 791.686 164.362 792.196 162.96C800.751 139.374 800.751 126.88 792.196 103.295C791.686 101.892 790.664 101.255 789.26 101.255H756.191C754.403 101.255 753.509 102.402 754.275 104.187C762.319 126.753 762.319 139.502 754.275 162.068C753.509 163.852 754.403 165 756.191 165Z" fill="#5A78FF"/>
<path d="M889.23 141.394C889.23 128.687 899.529 118.386 912.234 118.386C924.938 118.386 935.237 128.687 935.237 141.394C935.237 154.101 924.938 164.402 912.234 164.402C899.529 164.402 889.23 154.101 889.23 141.394Z" stroke="#FF5B24" stroke-width="0.818061"/>
<path d="M848.602 15.1993C831.003 15.1993 816.736 29.4691 816.736 47.0718C816.736 64.6745 831.003 78.9443 848.602 78.9443C866.201 78.9443 880.468 64.6745 880.468 47.0718C880.468 29.4691 866.201 15.1993 848.602 15.1993Z" fill="#FF5B24"/>
<path d="M857.614 161.175L857.618 161.187L857.623 161.199C858.108 162.33 858.03 163.163 857.661 163.699C857.289 164.24 856.537 164.602 855.407 164.602H810.823C809.937 164.602 809.202 164.401 808.615 164.003C808.03 163.607 807.559 162.993 807.239 162.111C801.479 146.209 798.612 134.083 798.612 121.972C798.612 109.862 801.479 97.735 807.239 81.8338C807.559 80.9515 808.03 80.3376 808.615 79.9412C809.202 79.5436 809.937 79.3428 810.823 79.3428H855.407C856.537 79.3428 857.289 79.7049 857.661 80.2458C858.03 80.7814 858.108 81.6141 857.623 82.746L857.618 82.7575L857.614 82.7693C852.184 98.0223 849.457 109.99 849.457 121.972C849.457 133.955 852.184 145.922 857.614 161.175Z" stroke="#FF5B24" stroke-width="0.818061"/>
</g>
<defs>
<clipPath id="clip0_107_7952">
<rect width="304" height="42" fill="white" transform="translate(56 90.5)"/>
</clipPath>
<clipPath id="clip1_107_7952">
<rect width="190" height="150" fill="white" transform="translate(754 15)"/>
</clipPath>
</defs>
</svg>
